<svg xmlns="http://www.w3.org/2000/svg" width="92.087" height="125" viewBox="0 0 92.087 125"><defs><style>.a{fill:#566371;}</style></defs><path class="a" d="M15.15,40.577l30.407,19.27V18.239H29.8v8.7h6.236L36.014,43.6,24.665,36.4l.009-27.7H45.557V0H15.15Z" transform="translate(-1.195)"/><path class="a" d="M61.353,43.626,61.344,8.7H72.72v9.534h9.5V0H51.81V59.847l30.407-19.27V30.407Z" transform="translate(-4.085)"/><path class="a" d="M38.15,109.9V100h5.527v4.394h19.9v5.527Z" transform="translate(-3.008 -7.885)"/><rect class="a" width="5.628" height="31.015" transform="translate(86.459 71.002)"/><rect class="a" width="5.555" height="20.007" transform="translate(54.597 71.002)"/><path class="a" d="M11.514,85.444V82.929H.23V77.642H17.99v7.074c0,13.615-5.251,18.92-17.99,21.186v-5.527C7.756,98.478,11.514,94.665,11.514,85.444Zm15.033,3.371h4.772v5.527H26.548v13.734H21.021v-31h5.527Z" transform="translate(0 -6.078)"/><path class="a" d="M88.911,77.39v5.3H82.122v5.2c0,9.976,2.3,11.45,7.176,12.592v5.527c-4.071-.5-8.576-2.579-10.133-5.849-1.584,3.27-6.54,5.527-10.225,5.849v-5.527c5.1-1.262,7.157-2.616,7.157-12.574V82.687H69.336v-5.3Z" transform="translate(-5.436 -6.102)"/><path class="a" d="M43.759,77.08a8.078,8.078,0,0,0-8.069,8.078v2.9a8.079,8.079,0,0,0,8.069,8.079h2.579A8.078,8.078,0,0,0,54.4,88.06V77.08Zm4.56,10.98a3.289,3.289,0,0,1-3.289,3.289h0a3.289,3.289,0,0,1-3.289-3.289V85.131a3.289,3.289,0,0,1,3.289-3.3h3.289Z" transform="translate(-2.814 -6.078)"/><path class="a" d="M31.177,127.9c0,1.621-.829,2.358-2.524,2.358H25.743v4.164H24.37V122.77h4.265c1.695,0,2.524.718,2.524,2.331Zm-5.435,1.271h2.441c1.161,0,1.612-.424,1.612-1.465v-2.386c0-1.032-.451-1.465-1.612-1.465H25.743Z" transform="translate(-1.922 -9.68)"/><path class="a" d="M33.69,134.423V122.77h6.034V123.9H35.063v4.035h4.523v1.087H35.063v4.357h4.8v1.087Z" transform="translate(-2.656 -9.68)"/><path class="a" d="M42,125.032c0-1.723,1.492-2.542,3.464-2.542s3.473.82,3.473,2.542v7.084c0,1.732-1.5,2.542-3.473,2.542S42,133.848,42,132.116Zm1.382,7.019c0,.921.866,1.52,2.082,1.52s2.063-.571,2.063-1.52V125.1c0-.921-.921-1.52-2.091-1.52s-2.082.571-2.082,1.52Z" transform="translate(-3.312 -9.658)"/><path class="a" d="M58.727,127.9c0,1.621-.829,2.358-2.524,2.358H53.292v4.164H51.91V122.77H56.2c1.695,0,2.524.718,2.524,2.331Zm-5.435,1.271h2.441c1.151,0,1.612-.424,1.612-1.465v-2.386c0-1.032-.461-1.465-1.612-1.465H53.292Z" transform="translate(-4.093 -9.68)"/><path class="a" d="M62.612,133.336h4.661v1.087H61.23V122.77h1.382Z" transform="translate(-4.828 -9.68)"/><path class="a" d="M69.41,134.423V122.77h6.07V123.9H70.792v4.035h4.523v1.087H70.792v4.357h4.8v1.087Z" transform="translate(-5.473 -9.68)"/></svg>