<svg xmlns="http://www.w3.org/2000/svg" width="218.857" height="42.45" viewBox="0 0 218.857 42.45"><defs><style>.a{fill:#000f9f;}</style></defs><g transform="translate(-368.081 -119.217)"><g transform="translate(368.081 119.217)"><g transform="translate(0 0)"><path class="a" d="M0,28.781,21.571,42.45V12.938H10.393v6.173h4.419l-.007,11.815-8.054-5.1.007-19.65H21.571V0H0Z"/><path class="a" d="M42.815,30.947,42.808,6.173h8.067v6.765h6.738V0H36.05V42.45L57.614,28.781v-7.21Z" transform="translate(-12.094)"/><path class="a" d="M140.35,46.3V35.24h6.173v4.891h22.116V46.3Z" transform="translate(-47.083 -11.822)"/><rect class="a" width="6.253" height="34.463" transform="translate(150.284 0.013)"/><rect class="a" width="6.173" height="22.235" transform="translate(114.878 0.013)"/><path class="a" d="M94.389,9.3V6.512H81.869V.665h19.737V8.493c0,15.131-5.841,21.019-20,23.591V25.917C90.209,23.79,94.389,19.551,94.389,9.3Zm16.72,3.741h5.276v6.173h-5.276V34.5h-6.174V0h6.174Z" transform="translate(-27.378)"/><path class="a" d="M209.945.5V6.381H202.4v5.781c0,11.084,2.558,12.726,7.974,14v6.134c-4.519-.552-9.523-2.857-11.3-6.5-1.754,3.642-7.263,6.1-11.363,6.5V26.158c5.675-1.4,7.974-2.911,7.974-13.955V6.381h-7.5V.5Z" transform="translate(-62.971 -0.168)"/><path class="a" d="M145.521,0a8.971,8.971,0,0,0-8.971,8.978v3.183a8.965,8.965,0,0,0,8.971,8.971h2.864a8.965,8.965,0,0,0,8.971-8.971V0Zm5.07,12.181a3.662,3.662,0,0,1-3.655,3.662h0a3.662,3.662,0,0,1-3.662-3.662V8.951a3.662,3.662,0,0,1,3.662-3.635h3.655Z" transform="translate(-45.808)"/><path class="a" d="M246.14,14.441V13.059h2.333l-.432-10.048h1.648l.372,10.048h2.3l.392-10.048H254.4l-.379,10.048h2.319v1.382Zm.16-12.128V.944h9.848V2.313Zm12.081,12.812V.26H260V15.126Z" transform="translate(-82.572 -0.087)"/><path class="a" d="M270.77,8.092V6.717h14.806V8.092Zm.7-2.585V4.178H274.2L273.907,2.3h1.668l.286,1.874h4.579l.3-1.874H282.4l-.312,1.874h2.791V5.507Zm.159-3.569V.57h13.078V1.946Zm.153,13.291V11.561h11.151v-.91H271.787V9.282h12.779v3.582H273.415v1h11.4V15.23Z" transform="translate(-90.835 -0.191)"/><path class="a" d="M254.3,37.428c0,1.867-.957,2.725-2.911,2.725h-3.363v4.8H246.44V31.5h4.951c1.954,0,2.911.824,2.911,2.658Zm-6.273,1.462h2.818c1.329,0,1.867-.492,1.867-1.688V34.451c0-1.2-.532-1.695-1.867-1.695h-2.818Z" transform="translate(-82.673 -10.567)"/><path class="a" d="M261.36,44.95V31.5h6.971v1.256h-5.376v4.652h5.217V38.67h-5.217v5.024h5.535V44.95Z" transform="translate(-87.678 -10.567)"/><path class="a" d="M274.66,33.981c0-1.994,1.714-2.931,3.987-2.931s3.987.944,3.987,2.931v8.187c0,1.994-1.741,2.937-3.987,2.937s-3.987-.944-3.987-2.937Zm1.588,8.114c0,1.09,1,1.748,2.406,1.748s2.419-.665,2.419-1.748V34.054c0-1.09-1.017-1.748-2.419-1.748s-2.406.665-2.406,1.748Z" transform="translate(-92.14 -10.416)"/><path class="a" d="M298.4,37.428c0,1.867-.95,2.725-2.911,2.725h-3.363v4.8H290.54V31.5H295.5c1.96,0,2.911.824,2.911,2.658Zm-6.273,1.462h2.818c1.329,0,1.867-.492,1.867-1.688V34.451c0-1.2-.525-1.695-1.867-1.695h-2.818Z" transform="translate(-97.467 -10.567)"/><path class="a" d="M307.055,43.694h5.409V44.95h-7V31.5h1.595Z" transform="translate(-102.472 -10.567)"/><path class="a" d="M318.56,44.95V31.5h6.978v1.256h-5.356v4.652H325.4V38.67h-5.223v5.024h5.542V44.95Z" transform="translate(-106.867 -10.567)"/></g></g></g></svg>